<svg width="127" height="48" viewBox="0 0 127 48" fill="none" xmlns="http://www.w3.org/2000/svg">
<path d="M11.6308 19.8549C11.8258 19.8549 12.019 19.8165 12.1993 19.7418C12.3795 19.6672 12.5432 19.5578 12.6812 19.4198C12.8191 19.2819 12.9286 19.1182 13.0032 18.9379C13.0779 18.7577 13.1163 18.5645 13.1163 18.3695C13.1163 15.6116 14.2119 12.9667 16.162 11.0166C18.112 9.0665 20.757 7.97094 23.5148 7.97094C26.2727 7.97094 28.9176 9.0665 30.8677 11.0166C32.8178 12.9667 33.9134 15.6116 33.9134 18.3695C33.9172 18.7609 34.0754 19.1349 34.3537 19.4103C34.6317 19.6857 35.0074 19.8402 35.3989 19.8402C35.7903 19.8402 36.1659 19.6857 36.444 19.4103C36.7222 19.1349 36.8804 18.7609 36.8843 18.3695C36.8843 16.6138 36.5385 14.8753 35.8666 13.2532C35.1947 11.6311 34.21 10.1573 32.9685 8.91582C31.7269 7.67435 30.2531 6.68956 28.6311 6.01769C27.009 5.34581 25.2706 5 23.5148 5C21.7591 5 20.0207 5.34581 18.3985 6.01769C16.7765 6.68956 15.3027 7.67435 14.0612 8.91582C12.8197 10.1573 11.8349 11.6311 11.1631 13.2532C10.4912 14.8753 10.1454 16.6138 10.1454 18.3695C10.1454 18.7634 10.3019 19.1412 10.5804 19.4198C10.859 19.6984 11.2368 19.8549 11.6308 19.8549Z" fill="#1A1E2C"/>
<path d="M42.5293 22.8258H29.452C30.4202 21.5421 30.9432 19.9775 30.9415 18.3695C30.9415 16.3996 30.1589 14.5103 28.7661 13.1174C27.3731 11.7245 25.4838 10.942 23.5139 10.942C21.5442 10.942 19.655 11.7245 18.262 13.1174C16.869 14.5103 16.0865 16.3996 16.0865 18.3695C16.0865 18.7635 16.243 19.1413 16.5216 19.4199C16.8002 19.6985 17.1781 19.855 17.5721 19.855C17.9661 19.855 18.344 19.6985 18.6225 19.4199C18.9011 19.1413 19.0576 18.7635 19.0576 18.3695C19.0576 17.488 19.3189 16.6264 19.8086 15.8935C20.2983 15.1606 20.9943 14.5894 21.8086 14.2521C22.6229 13.9148 23.519 13.8265 24.3834 13.9984C25.2479 14.1704 26.0421 14.5948 26.6652 15.218C27.2885 15.8413 27.713 16.6354 27.885 17.4998C28.0569 18.3643 27.9687 19.2604 27.6314 20.0746C27.294 20.889 26.7229 21.5851 25.99 22.0748C25.2571 22.5645 24.3955 22.8258 23.5141 22.8258H4.50039C4.30407 22.8239 4.1093 22.8608 3.92735 22.9347C3.7454 23.0084 3.57989 23.1175 3.44037 23.2556C3.30085 23.3938 3.19009 23.5581 3.1145 23.7393C3.03892 23.9206 3 24.115 3 24.3113C3 24.5075 3.03892 24.702 3.1145 24.8832C3.19009 25.0644 3.30085 25.2287 3.44037 25.367C3.57989 25.505 3.7454 25.6142 3.92735 25.6879C4.1093 25.7617 4.30407 25.7987 4.50039 25.7967H42.5293C42.9207 25.7929 43.2947 25.6346 43.5701 25.3564C43.8455 25.0784 44 24.7027 44 24.3113C44 23.9198 43.8455 23.5442 43.5701 23.2661C43.2947 22.9879 42.9207 22.8297 42.5293 22.8258Z" fill="#0346F2"/>
<path d="M35.3692 28.942C35.1742 28.942 34.981 28.9803 34.8007 29.055C34.6205 29.1296 34.4568 29.239 34.3188 29.377C34.1809 29.5149 34.0714 29.6786 33.9968 29.8589C33.9221 30.0391 33.8837 30.2323 33.8837 30.4274C33.8837 33.1852 32.7881 35.8301 30.838 37.7802C28.888 39.7303 26.243 40.8259 23.4852 40.8259C20.7273 40.8259 18.0824 39.7303 16.1323 37.7802C14.1822 35.8301 13.0866 33.1852 13.0866 30.4274C13.0828 30.036 12.9246 29.6619 12.6463 29.3865C12.3683 29.1111 11.9926 28.9566 11.6011 28.9566C11.2097 28.9566 10.8341 29.1111 10.556 29.3865C10.2778 29.6619 10.1196 30.036 10.1157 30.4274C10.1157 32.1831 10.4615 33.9216 11.1334 35.5436C11.8053 37.1657 12.79 38.6395 14.0315 39.881C15.2731 41.1225 16.7469 42.1072 18.3689 42.7791C19.991 43.451 21.7294 43.7968 23.4852 43.7968C25.2409 43.7968 26.9793 43.451 28.6015 42.7791C30.2235 42.1072 31.6973 41.1225 32.9388 39.881C34.1803 38.6395 35.1651 37.1657 35.8369 35.5436C36.5088 33.9216 36.8546 32.1831 36.8546 30.4274C36.8546 30.0334 36.6981 29.6556 36.4196 29.377C36.141 29.0985 35.7632 28.942 35.3692 28.942Z" fill="#1A1E2C"/>
<path d="M4.47071 25.971H17.548C16.5798 27.2547 16.0568 28.8193 16.0585 30.4274C16.0585 32.3973 16.8411 34.2865 18.2339 35.6794C19.6269 37.0723 21.5162 37.8549 23.4861 37.8549C25.4558 37.8549 27.345 37.0723 28.738 35.6794C30.131 34.2865 30.9135 32.3973 30.9135 30.4274C30.9135 30.0334 30.757 29.6555 30.4784 29.3769C30.1998 29.0983 29.8219 28.9418 29.4279 28.9418C29.0339 28.9418 28.656 29.0983 28.3775 29.3769C28.0989 29.6555 27.9424 30.0334 27.9424 30.4274C27.9424 31.3088 27.6811 32.1704 27.1914 32.9033C26.7017 33.6362 26.0057 34.2074 25.1914 34.5447C24.3771 34.882 23.481 34.9703 22.6166 34.7984C21.7521 34.6264 20.9579 34.202 20.3348 33.5788C19.7115 32.9555 19.287 32.1615 19.115 31.297C18.9431 30.4325 19.0313 29.5364 19.3686 28.7222C19.706 27.9078 20.2771 27.2117 21.01 26.722C21.7429 26.2323 22.6045 25.971 23.4859 25.971H42.4996C42.6959 25.9729 42.8907 25.936 43.0726 25.8622C43.2546 25.7885 43.4201 25.6793 43.5596 25.5412C43.6992 25.403 43.8099 25.2387 43.8855 25.0575C43.9611 24.8762 44 24.6818 44 24.4855C44 24.2893 43.9611 24.0948 43.8855 23.9136C43.8099 23.7324 43.6992 23.5681 43.5596 23.4299C43.4201 23.2918 43.2546 23.1826 43.0726 23.1089C42.8907 23.0351 42.6959 22.9981 42.4996 23.0001H4.47071C4.07935 23.0039 3.70533 23.1622 3.42993 23.4404C3.15453 23.7184 3 24.0941 3 24.4855C3 24.877 3.15453 25.2526 3.42993 25.5307C3.70533 25.8089 4.07935 25.9672 4.47071 25.971Z" fill="#0346F2"/>
<path d="M72.032 10.832L68.912 22H66.272L64.176 14.048L61.984 22L59.36 22.016L56.352 10.832H58.752L60.72 19.504L62.992 10.832H65.488L67.632 19.456L69.616 10.832H72.032ZM81.7346 17.376C81.7346 17.696 81.7133 17.984 81.6706 18.24H75.1906C75.244 18.88 75.468 19.3813 75.8626 19.744C76.2573 20.1067 76.7426 20.288 77.3186 20.288C78.1506 20.288 78.7426 19.9307 79.0946 19.216H81.5106C81.2546 20.0693 80.764 20.7733 80.0386 21.328C79.3133 21.872 78.4226 22.144 77.3666 22.144C76.5133 22.144 75.7453 21.9573 75.0626 21.584C74.3906 21.2 73.8626 20.6613 73.4786 19.968C73.1053 19.2747 72.9186 18.4747 72.9186 17.568C72.9186 16.6507 73.1053 15.8453 73.4786 15.152C73.852 14.4587 74.3746 13.9253 75.0466 13.552C75.7186 13.1787 76.492 12.992 77.3666 12.992C78.2093 12.992 78.9613 13.1733 79.6226 13.536C80.2946 13.8987 80.812 14.416 81.1746 15.088C81.548 15.7493 81.7346 16.512 81.7346 17.376ZM79.4146 16.736C79.404 16.16 79.196 15.7013 78.7906 15.36C78.3853 15.008 77.8893 14.832 77.3026 14.832C76.748 14.832 76.2786 15.0027 75.8946 15.344C75.5213 15.6747 75.292 16.1387 75.2066 16.736H79.4146ZM85.6096 14.432C85.8976 14.0053 86.2923 13.6587 86.7936 13.392C87.3056 13.1253 87.887 12.992 88.5376 12.992C89.295 12.992 89.9776 13.1787 90.5856 13.552C91.2043 13.9253 91.6896 14.4587 92.0416 15.152C92.4043 15.8347 92.5856 16.6293 92.5856 17.536C92.5856 18.4427 92.4043 19.248 92.0416 19.952C91.6896 20.6453 91.2043 21.184 90.5856 21.568C89.9776 21.952 89.295 22.144 88.5376 22.144C87.8763 22.144 87.295 22.016 86.7936 21.76C86.303 21.4933 85.9083 21.152 85.6096 20.736V22H83.3696V10.16H85.6096V14.432ZM90.2976 17.536C90.2976 17.0027 90.1856 16.544 89.9616 16.16C89.7483 15.7653 89.4603 15.4667 89.0976 15.264C88.7456 15.0613 88.3616 14.96 87.9456 14.96C87.5403 14.96 87.1563 15.0667 86.7936 15.28C86.4416 15.4827 86.1536 15.7813 85.9296 16.176C85.7163 16.5707 85.6096 17.0347 85.6096 17.568C85.6096 18.1013 85.7163 18.5653 85.9296 18.96C86.1536 19.3547 86.4416 19.6587 86.7936 19.872C87.1563 20.0747 87.5403 20.176 87.9456 20.176C88.3616 20.176 88.7456 20.0693 89.0976 19.856C89.4603 19.6427 89.7483 19.3387 89.9616 18.944C90.1856 18.5493 90.2976 18.08 90.2976 17.536ZM97.6054 22.144C96.88 22.144 96.2294 22.016 95.6534 21.76C95.0774 21.4933 94.6187 21.136 94.2774 20.688C93.9467 20.24 93.7654 19.744 93.7334 19.2H95.9894C96.032 19.5413 96.1974 19.824 96.4854 20.048C96.784 20.272 97.152 20.384 97.5894 20.384C98.016 20.384 98.3467 20.2987 98.5814 20.128C98.8267 19.9573 98.9494 19.7387 98.9494 19.472C98.9494 19.184 98.8 18.9707 98.5014 18.832C98.2134 18.6827 97.7494 18.5227 97.1094 18.352C96.448 18.192 95.904 18.0267 95.4774 17.856C95.0614 17.6853 94.6987 17.424 94.3894 17.072C94.0907 16.72 93.9414 16.2453 93.9414 15.648C93.9414 15.1573 94.08 14.7093 94.3574 14.304C94.6454 13.8987 95.0507 13.5787 95.5734 13.344C96.1067 13.1093 96.7307 12.992 97.4454 12.992C98.5014 12.992 99.344 13.2587 99.9734 13.792C100.603 14.3147 100.949 15.024 101.013 15.92H98.8694C98.8374 15.568 98.688 15.2907 98.4214 15.088C98.1654 14.8747 97.8187 14.768 97.3814 14.768C96.976 14.768 96.6614 14.8427 96.4374 14.992C96.224 15.1413 96.1174 15.3493 96.1174 15.616C96.1174 15.9147 96.2667 16.144 96.5654 16.304C96.864 16.4533 97.328 16.608 97.9574 16.768C98.5974 16.928 99.1254 17.0933 99.5414 17.264C99.9574 17.4347 100.315 17.7013 100.613 18.064C100.923 18.416 101.083 18.8853 101.093 19.472C101.093 19.984 100.949 20.4427 100.661 20.848C100.384 21.2533 99.9787 21.5733 99.4454 21.808C98.9227 22.032 98.3094 22.144 97.6054 22.144ZM104.068 12.08C103.673 12.08 103.343 11.9573 103.076 11.712C102.82 11.456 102.692 11.1413 102.692 10.768C102.692 10.3947 102.82 10.0853 103.076 9.84C103.343 9.584 103.673 9.456 104.068 9.456C104.463 9.456 104.788 9.584 105.044 9.84C105.311 10.0853 105.444 10.3947 105.444 10.768C105.444 11.1413 105.311 11.456 105.044 11.712C104.788 11.9573 104.463 12.08 104.068 12.08ZM105.172 13.136V22H102.932V13.136H105.172ZM109.993 14.976V19.264C109.993 19.5627 110.063 19.7813 110.201 19.92C110.351 20.048 110.596 20.112 110.937 20.112H111.977V22H110.569C108.681 22 107.737 21.0827 107.737 19.248V14.976H106.681V13.136H107.737V10.944H109.993V13.136H111.977V14.976H109.993ZM121.828 17.376C121.828 17.696 121.807 17.984 121.764 18.24H115.284C115.338 18.88 115.562 19.3813 115.956 19.744C116.351 20.1067 116.836 20.288 117.412 20.288C118.244 20.288 118.836 19.9307 119.188 19.216H121.604C121.348 20.0693 120.858 20.7733 120.132 21.328C119.407 21.872 118.516 22.144 117.46 22.144C116.607 22.144 115.839 21.9573 115.156 21.584C114.484 21.2 113.956 20.6613 113.572 19.968C113.199 19.2747 113.012 18.4747 113.012 17.568C113.012 16.6507 113.199 15.8453 113.572 15.152C113.946 14.4587 114.468 13.9253 115.14 13.552C115.812 13.1787 116.586 12.992 117.46 12.992C118.303 12.992 119.055 13.1733 119.716 13.536C120.388 13.8987 120.906 14.416 121.268 15.088C121.642 15.7493 121.828 16.512 121.828 17.376ZM119.508 16.736C119.498 16.16 119.29 15.7013 118.884 15.36C118.479 15.008 117.983 14.832 117.396 14.832C116.842 14.832 116.372 15.0027 115.988 15.344C115.615 15.6747 115.386 16.1387 115.3 16.736H119.508ZM66.656 38H64.416L59.344 30.336V38H57.104V26.816H59.344L64.416 34.496V26.816H66.656V38ZM68.2936 33.536C68.2936 32.64 68.4696 31.8453 68.8216 31.152C69.1843 30.4587 69.6696 29.9253 70.2776 29.552C70.8963 29.1787 71.5843 28.992 72.3416 28.992C73.003 28.992 73.579 29.1253 74.0696 29.392C74.571 29.6587 74.971 29.9947 75.2696 30.4V29.136H77.5256V38H75.2696V36.704C74.9816 37.12 74.5816 37.4667 74.0696 37.744C73.5683 38.0107 72.987 38.144 72.3256 38.144C71.579 38.144 70.8963 37.952 70.2776 37.568C69.6696 37.184 69.1843 36.6453 68.8216 35.952C68.4696 35.248 68.2936 34.4427 68.2936 33.536ZM75.2696 33.568C75.2696 33.024 75.163 32.56 74.9496 32.176C74.7363 31.7813 74.4483 31.4827 74.0856 31.28C73.723 31.0667 73.3336 30.96 72.9176 30.96C72.5016 30.96 72.1176 31.0613 71.7656 31.264C71.4136 31.4667 71.1256 31.7653 70.9016 32.16C70.6883 32.544 70.5816 33.0027 70.5816 33.536C70.5816 34.0693 70.6883 34.5387 70.9016 34.944C71.1256 35.3387 71.4136 35.6427 71.7656 35.856C72.1283 36.0693 72.5123 36.176 72.9176 36.176C73.3336 36.176 73.723 36.0747 74.0856 35.872C74.4483 35.6587 74.7363 35.36 74.9496 34.976C75.163 34.5813 75.2696 34.112 75.2696 33.568ZM90.7214 29.008C91.8094 29.008 92.684 29.344 93.3454 30.016C94.0174 30.6773 94.3534 31.6053 94.3534 32.8V38H92.1134V33.104C92.1134 32.4107 91.9374 31.8827 91.5854 31.52C91.2334 31.1467 90.7534 30.96 90.1454 30.96C89.5374 30.96 89.052 31.1467 88.6894 31.52C88.3374 31.8827 88.1614 32.4107 88.1614 33.104V38H85.9214V33.104C85.9214 32.4107 85.7454 31.8827 85.3934 31.52C85.0414 31.1467 84.5614 30.96 83.9534 30.96C83.3347 30.96 82.844 31.1467 82.4814 31.52C82.1294 31.8827 81.9534 32.4107 81.9534 33.104V38H79.7134V29.136H81.9534V30.208C82.2414 29.8347 82.6094 29.5413 83.0574 29.328C83.516 29.1147 84.0174 29.008 84.5614 29.008C85.2547 29.008 85.8734 29.1573 86.4174 29.456C86.9614 29.744 87.3827 30.16 87.6814 30.704C87.9694 30.192 88.3854 29.7813 88.9294 29.472C89.484 29.1627 90.0814 29.008 90.7214 29.008ZM104.719 33.376C104.719 33.696 104.698 33.984 104.655 34.24H98.175C98.2283 34.88 98.4523 35.3813 98.847 35.744C99.2417 36.1067 99.727 36.288 100.303 36.288C101.135 36.288 101.727 35.9307 102.079 35.216H104.495C104.239 36.0693 103.748 36.7733 103.023 37.328C102.298 37.872 101.407 38.144 100.351 38.144C99.4977 38.144 98.7297 37.9573 98.047 37.584C97.375 37.2 96.847 36.6613 96.463 35.968C96.0897 35.2747 95.903 34.4747 95.903 33.568C95.903 32.6507 96.0897 31.8453 96.463 31.152C96.8363 30.4587 97.359 29.9253 98.031 29.552C98.703 29.1787 99.4763 28.992 100.351 28.992C101.194 28.992 101.946 29.1733 102.607 29.536C103.279 29.8987 103.796 30.416 104.159 31.088C104.532 31.7493 104.719 32.512 104.719 33.376ZM102.399 32.736C102.388 32.16 102.18 31.7013 101.775 31.36C101.37 31.008 100.874 30.832 100.287 30.832C99.7323 30.832 99.263 31.0027 98.879 31.344C98.5057 31.6747 98.2763 32.1387 98.191 32.736H102.399Z" fill="#1A1E2C"/>
</svg>
